<svg id="Capa_1" enable-background="new 0 0 512 512" height="128" viewBox="0 0 512 512" width="128" xmlns="http://www.w3.org/2000/svg"><g><path d="m444.718 493.012c0 10.486-8.501 18.987-18.987 18.987h-339.462c-10.486 0-18.987-8.501-18.987-18.987v-474.025c0-10.486 8.501-18.987 18.987-18.987h339.461c10.486 0 18.987 8.501 18.987 18.987v474.025z" fill="#b48e84"/><path d="m444.718 18.987c0-10.486-8.501-18.987-18.987-18.987h-30.47c10.486 0 18.987 8.5 18.987 18.987v474.025c0 10.486-8.501 18.987-18.987 18.987h30.47c10.486 0 18.987-8.501 18.987-18.987z" fill="#a77d73"/><path d="m101.247 481.095c-1.689 0-3.059-1.369-3.059-3.059v-444.072c0-1.689 1.369-3.059 3.059-3.059h309.507c1.689 0 3.059 1.369 3.059 3.059v444.071c0 1.689-1.369 3.059-3.059 3.059h-309.507z" fill="#f6f6f6"/><path d="m389.878 30.906v450.189h20.876c1.689 0 3.059-1.369 3.059-3.059v-444.072c0-1.689-1.369-3.059-3.059-3.059h-20.876z" fill="#eaeaea"/><path d="m313.364 49.965c-3.293 9.49-12.236 15.852-22.281 15.852h-70.165c-10.045 0-18.988-6.362-22.281-15.852l-17.341-49.965h149.408z" fill="#eab14d"/><path d="m303.325 0-17.341 49.965c-3.293 9.49-12.236 15.852-22.281 15.852h27.379c10.045 0 18.988-6.362 22.281-15.852l17.341-49.965z" fill="#e49542"/><g><path d="m180.154 256.81h-34.849c-3.298 0-5.971-2.673-5.971-5.971v-34.849c0-3.298 2.673-5.971 5.971-5.971h34.849c3.298 0 5.971 2.673 5.971 5.971v34.849c0 3.298-2.674 5.971-5.971 5.971z" fill="#bebebe"/><g><g><path d="m255.306 227.178h-29.776c-4.268 0-7.726-3.459-7.726-7.726s3.459-7.726 7.726-7.726h29.777c4.268 0 7.726 3.459 7.726 7.726s-3.459 7.726-7.727 7.726z" fill="#2b4d66"/></g><g><path d="m371.379 255.104h-145.849c-4.268 0-7.726-3.459-7.726-7.726 0-4.268 3.459-7.726 7.726-7.726h145.849c4.268 0 7.726 3.459 7.726 7.726s-3.459 7.726-7.726 7.726z" fill="#2b4d66"/></g></g><g><path d="m162.729 247.322c-.429 0-.859-.035-1.288-.108-2.216-.375-4.16-1.697-5.324-3.621l-4.646-7.682c-2.208-3.651-1.038-8.401 2.614-10.61 3.647-2.207 8.399-1.039 10.61 2.614l.007.011 44.101-36.544c3.286-2.723 8.156-2.267 10.879 1.02 2.722 3.286 2.266 8.156-1.02 10.879l-51.003 42.264c-1.397 1.157-3.143 1.777-4.93 1.777z" fill="#a2f4c1"/></g></g><g><path d="m180.154 346.445h-34.849c-3.298 0-5.971-2.673-5.971-5.971v-34.849c0-3.298 2.673-5.971 5.971-5.971h34.849c3.298 0 5.971 2.673 5.971 5.971v34.849c0 3.297-2.674 5.971-5.971 5.971z" fill="#bebebe"/><g><g><path d="m255.306 316.812h-29.776c-4.268 0-7.726-3.459-7.726-7.726 0-4.268 3.459-7.726 7.726-7.726h29.777c4.268 0 7.726 3.459 7.726 7.726s-3.459 7.726-7.727 7.726z" fill="#2b4d66"/></g><g><path d="m371.379 344.738h-145.849c-4.268 0-7.726-3.459-7.726-7.726 0-4.268 3.459-7.726 7.726-7.726h145.849c4.268 0 7.726 3.459 7.726 7.726s-3.459 7.726-7.726 7.726z" fill="#2b4d66"/></g></g><g><path d="m162.729 336.956c-.429 0-.859-.035-1.288-.108-2.216-.375-4.16-1.696-5.323-3.62l-4.646-7.681c-2.209-3.652-1.039-8.401 2.612-10.61 3.65-2.211 8.401-1.04 10.61 2.612l.007.012 44.102-36.544c3.286-2.722 8.156-2.267 10.879 1.02 2.722 3.286 2.266 8.156-1.02 10.879l-51.003 42.263c-1.397 1.157-3.143 1.777-4.93 1.777z" fill="#a2f4c1"/></g></g><g><path d="m180.154 436.079h-34.849c-3.298 0-5.971-2.673-5.971-5.971v-34.849c0-3.298 2.673-5.971 5.971-5.971h34.849c3.298 0 5.971 2.673 5.971 5.971v34.849c0 3.298-2.674 5.971-5.971 5.971z" fill="#bebebe"/><g><g><path d="m255.306 406.447h-29.776c-4.268 0-7.726-3.459-7.726-7.726 0-4.268 3.459-7.726 7.726-7.726h29.777c4.268 0 7.726 3.459 7.726 7.726s-3.459 7.726-7.727 7.726z" fill="#2b4d66"/></g><g><path d="m371.379 434.372h-145.849c-4.268 0-7.726-3.459-7.726-7.726 0-4.268 3.459-7.726 7.726-7.726h145.849c4.268 0 7.726 3.459 7.726 7.726 0 4.268-3.459 7.726-7.726 7.726z" fill="#2b4d66"/></g></g><g><path d="m162.729 426.591c-.429 0-.859-.035-1.288-.108-2.216-.375-4.16-1.696-5.323-3.62l-4.646-7.681c-2.209-3.652-1.039-8.401 2.612-10.61 3.65-2.211 8.401-1.04 10.61 2.612l.007.012 44.102-36.545c3.286-2.722 8.156-2.266 10.879 1.02 2.722 3.286 2.266 8.156-1.02 10.879l-51.003 42.264c-1.397 1.157-3.143 1.777-4.93 1.777z" fill="#a2f4c1"/></g></g><g><path d="m282.152 40.635h-52.305c-4.268 0-7.726-3.459-7.726-7.726s3.459-7.726 7.726-7.726h52.305c4.268 0 7.726 3.459 7.726 7.726s-3.458 7.726-7.726 7.726z" fill="#2b4d66"/></g><g><g><path d="m216.94 160.067c-.773 0-1.548-.116-2.3-.35-2.025-.632-3.701-2.067-4.636-3.972l-13.284-27.059c-1.88-3.83-.3-8.46 3.531-10.34 3.828-1.881 8.46-.3 10.34 3.531l9.691 19.741 84.288-47.146c3.723-2.082 8.432-.754 10.515 2.972 2.082 3.724.753 8.432-2.972 10.515l-91.402 51.125c-1.163.651-2.463.983-3.771.983z" fill="#6bbef6"/></g><g><path d="m255.302 179.513c-.632 0-1.272-.077-1.911-.24-4.136-1.052-6.635-5.259-5.582-9.393l10.532-41.382-39.231-18.078c-3.875-1.786-5.569-6.375-3.784-10.251 1.785-3.875 6.375-5.572 10.251-3.784l45.071 20.77c3.384 1.559 5.173 5.312 4.255 8.923l-12.118 47.614c-.891 3.494-4.034 5.821-7.483 5.821z" fill="#6bbef6"/></g></g></g></svg>